<svg width="210" height="50" viewBox="0 0 210 50" fill="none" xmlns="http://www.w3.org/2000/svg">
<path d="M5.15065 45.0401C3.46403 43.4371 2.13437 41.4965 1.24842 39.3449C0.362468 37.1933 -0.0598575 34.8791 0.00899905 32.5533C-0.06767 30.2309 0.346263 27.9184 1.22378 25.7668C2.1013 23.6152 3.42268 21.6728 5.10168 20.0664C8.60938 16.7823 13.2753 15.0215 18.0782 15.1696C21.146 15.1251 24.1761 15.849 26.8925 17.2752V24.2777C24.3057 22.5295 21.2492 21.6074 18.1272 21.6334C16.6603 21.5931 15.2002 21.8475 13.8334 22.3816C12.4665 22.9157 11.2208 23.7186 10.1699 24.7429C9.1243 25.7498 8.30263 26.9658 7.75843 28.3115C7.21423 29.6573 6.9597 31.1026 7.01143 32.5533C6.96992 34.0188 7.23856 35.4765 7.79975 36.831C8.36093 38.1854 9.20199 39.406 10.2678 40.4127C11.3548 41.4396 12.6359 42.2392 14.0359 42.7648C15.4359 43.2903 16.9267 43.5311 18.421 43.4732C21.71 43.5838 24.9362 42.5545 27.5535 40.5596V47.4641C24.6839 49.1446 21.4028 49.9925 18.0782 49.9125C13.2947 50.0595 8.64721 48.3079 5.15065 45.0401Z" fill="white"/>
<path d="M35.168 28.4645C36.419 27.2493 37.9041 26.3013 39.5331 25.6784C41.1621 25.0554 42.9007 24.7704 44.6433 24.8408C46.3898 24.7685 48.1328 25.0525 49.766 25.6755C51.3992 26.2985 52.8885 27.2474 54.1432 28.4645C55.3217 29.6302 56.2573 31.0182 56.8958 32.548C57.5343 34.0777 57.8631 35.719 57.8631 37.3767C57.8631 39.0343 57.5343 40.6756 56.8958 42.2054C56.2573 43.7351 55.3217 45.1231 54.1432 46.2888C52.8756 47.4845 51.383 48.4162 49.7521 49.0299C48.1213 49.6435 46.3847 49.9269 44.6433 49.8635C42.9076 49.9283 41.1763 49.6478 39.5498 49.0384C37.9232 48.4289 36.4339 47.5027 35.168 46.3133C33.9615 45.1584 33.0077 43.7657 32.3671 42.2232C31.7266 40.6807 31.413 39.0221 31.4464 37.3522C31.4067 35.6923 31.7176 34.0427 32.3589 32.5112C33.0001 30.9797 33.9574 29.6007 35.168 28.4645ZM44.6433 43.9873C45.5214 44.0224 46.3968 43.8703 47.2116 43.541C48.0263 43.2117 48.7616 42.7129 49.3688 42.0776C49.9838 41.4527 50.4657 40.7096 50.7856 39.8932C51.1054 39.0768 51.2564 38.2041 51.2296 37.3277C51.2588 36.4547 51.1088 35.5849 50.7887 34.7722C50.4687 33.9594 49.9854 33.2209 49.3688 32.6023C48.7616 31.967 48.0263 31.4681 47.2116 31.1389C46.3968 30.8096 45.5214 30.6575 44.6433 30.6925C43.7694 30.661 42.8986 30.8148 42.0884 31.144C41.2781 31.4731 40.5468 31.9701 39.9424 32.6023C39.3258 33.2209 38.8425 33.9594 38.5224 34.7722C38.2024 35.5849 38.0524 36.4547 38.0816 37.3277C38.0548 38.2041 38.2058 39.0768 38.5256 39.8932C38.8454 40.7096 39.3274 41.4527 39.9424 42.0776C40.5468 42.7097 41.2781 43.2067 42.0884 43.5359C42.8986 43.865 43.7694 44.0189 44.6433 43.9873Z" fill="white"/>
<path d="M62.8106 49.2269V25.4529H69.5192V28.3665C70.3548 27.2154 71.4637 26.2904 72.746 25.6749C74.0283 25.0594 75.4437 24.7728 76.8644 24.8408C78.3434 24.764 79.8145 25.1014 81.1121 25.8151C82.4098 26.5288 83.4825 27.5905 84.2096 28.8807C85.1607 27.6075 86.3998 26.5776 87.8254 25.8754C89.2511 25.1733 90.8228 24.8187 92.4118 24.8408C97.5045 24.8408 100.883 28.1217 100.883 34.3651V49.2269H94.1257V35.8831C94.1257 32.6023 92.779 30.9863 90.1593 30.9863C89.1275 31.0336 88.1278 31.359 87.2657 31.9279C86.4037 32.4968 85.7116 33.2882 85.2624 34.2182V49.2269H78.4804V35.8831C78.4804 32.6023 77.1582 30.9863 74.5384 30.9863C73.5104 31.039 72.512 31.3491 71.635 31.8882C70.7581 32.4272 70.0305 33.1779 69.5192 34.0713V49.178L62.8106 49.2269Z" fill="white"/>
<path d="M109.159 31.0842H104.482V25.4529H109.159V18.9156H115.867V25.4529H122.65V31.0842H115.867V40.5106C115.867 42.8365 116.822 43.8404 119.124 43.8404C120.335 43.839 121.528 43.545 122.601 42.9835V48.5658C120.863 49.5143 118.897 49.9634 116.92 49.8635C111.73 49.8635 109.159 47.1947 109.159 41.8572V31.0842Z" fill="white"/>
<path d="M127.914 49.2269V25.4529H134.671V29.4438C135.486 28.0992 136.633 26.9863 138.001 26.2119C139.484 25.3317 141.173 24.8587 142.898 24.8408C143.15 24.8121 143.405 24.8121 143.657 24.8408V31.4025C142.968 31.2356 142.26 31.1533 141.551 31.1577C140.129 31.1644 138.736 31.5605 137.523 32.3029C136.31 33.0453 135.324 34.1056 134.671 35.3689V49.2269H127.914Z" fill="white"/>
<path d="M172.107 43.8649V48.7617C171.044 49.4893 169.769 49.8424 168.484 49.7656C167.378 49.8905 166.26 49.6615 165.292 49.1116C164.325 48.5617 163.556 47.7192 163.097 46.7051C162.031 47.7875 160.751 48.636 159.339 49.1966C157.927 49.7573 156.413 50.0177 154.895 49.9615C153.785 50.071 152.664 49.9466 151.605 49.5963C150.546 49.2461 149.572 48.6778 148.746 47.928C147.921 47.1782 147.261 46.2637 146.81 45.2434C146.36 44.2231 146.128 43.1196 146.13 42.0042C146.066 40.8789 146.286 39.7558 146.77 38.7377C147.253 37.7196 147.984 36.8391 148.896 36.177C150.829 34.8194 153.146 34.1159 155.507 34.1693C157.888 34.1021 160.249 34.6146 162.387 35.6628V34.9283C162.387 31.9412 160.281 30.4477 156.095 30.4477C153.557 30.4501 151.069 31.1442 148.896 32.4554V26.7261C151.637 25.3877 154.663 24.7404 157.711 24.8408C160.646 24.6839 163.544 25.5491 165.913 27.2892C166.911 28.1061 167.705 29.1443 168.232 30.3216C168.759 31.4988 169.005 32.7827 168.949 34.0713V42.1266C168.949 43.3263 169.512 43.9384 170.614 43.9384C171.109 44.049 171.625 44.0236 172.107 43.8649ZM162.314 39.972C160.854 39.0365 159.151 38.5512 157.417 38.5764C154.552 38.5764 152.74 39.7271 152.74 41.6859C152.74 43.6446 154.503 44.7709 157.001 44.7709C158.029 44.8251 159.055 44.6309 159.993 44.2048C160.931 43.7786 161.752 43.133 162.387 42.3224L162.314 39.972Z" fill="white"/>
<path fill-rule="evenodd" clip-rule="evenodd" d="M192.386 10.4057C193.763 10.4009 195.111 10.8052 196.258 11.5674C197.405 12.3296 198.3 13.4153 198.83 14.6869C199.359 15.9585 199.499 17.3586 199.231 18.7097C198.964 20.0608 198.301 21.3021 197.327 22.276C196.353 23.2499 195.112 23.9127 193.761 24.1802C192.41 24.4477 191.01 24.308 189.738 23.7786C188.466 23.2493 187.381 22.3543 186.618 21.207C185.856 20.0598 185.452 18.7121 185.457 17.3347C185.457 15.497 186.187 13.7346 187.486 12.4352C188.786 11.1357 190.548 10.4057 192.386 10.4057ZM192.386 1.72502e-05C195.821 -0.00482476 199.181 1.00977 202.039 2.91536C204.898 4.82095 207.126 7.53184 208.443 10.7048C209.76 13.8778 210.106 17.3702 209.437 20.7398C208.768 24.1094 207.114 27.2048 204.685 29.634C202.256 32.0632 199.16 33.717 195.791 34.386C192.421 35.055 188.929 34.7092 185.756 33.3923C182.583 32.0754 179.872 29.8466 177.966 26.9882C176.061 24.1297 175.046 20.7701 175.051 17.3347C175.051 12.7373 176.877 8.32812 180.128 5.07723C183.379 1.82635 187.788 1.72502e-05 192.386 1.72502e-05Z" fill="#EC008C"/>
<path fill-rule="evenodd" clip-rule="evenodd" d="M199.07 19.1465L209.133 21.8398C208.248 25.1599 206.398 28.1427 203.816 30.4106C201.235 32.6784 198.039 34.1291 194.632 34.579C191.226 35.029 187.763 34.4579 184.681 32.9381C181.599 31.4183 179.038 29.0181 177.321 26.0416C175.605 23.0651 174.81 19.6461 175.038 16.2177C175.266 12.7892 176.507 9.50552 178.602 6.78247C180.698 4.05942 183.554 2.01951 186.81 0.92108C190.066 -0.17735 193.574 -0.284882 196.891 0.612103L194.198 10.6506C192.869 10.2895 191.463 10.331 190.158 10.7699C188.853 11.2088 187.707 12.0253 186.867 13.1159C186.026 14.2065 185.528 15.5221 185.436 16.8959C185.344 18.2698 185.662 19.64 186.35 20.833C187.037 22.0259 188.064 22.9879 189.299 23.5969C190.533 24.206 191.921 24.4347 193.286 24.2541C194.651 24.0734 195.932 23.4916 196.966 22.5823C198 21.673 198.741 20.4773 199.094 19.1465H199.07Z" fill="#0047FF"/>
<path fill-rule="evenodd" clip-rule="evenodd" d="M196.646 22.8191C197.846 21.8996 198.707 20.6079 199.094 19.1465L209.157 21.8398C208.186 25.4794 206.054 28.703 203.085 31.0213L196.646 22.8191Z" fill="#FFCB05"/>
<path fill-rule="evenodd" clip-rule="evenodd" d="M203.061 31.0213C199.748 33.6075 195.609 34.9039 191.412 34.6698C187.216 34.4356 183.247 32.6869 180.242 29.7481L187.587 22.4029C188.437 23.2273 189.481 23.8251 190.623 24.1413C191.662 24.4208 192.753 24.4535 193.807 24.2367C194.861 24.0199 195.85 23.5596 196.695 22.8926L203.061 31.0213Z" fill="#00AEEF"/>
</svg>
